<svg id="Layer_1" data-name="Layer 1" xmlns="http://www.w3.org/2000/svg" xmlns:xlink="http://www.w3.org/1999/xlink" viewBox="0 0 125.1221 27"><defs><linearGradient id="linear-gradient" x1="7.7797" y1="33.1869" x2="29.3241" y2="9.5001" gradientTransform="matrix(1, 0, 0, -1, -4, 36)" gradientUnits="userSpaceOnUse"><stop offset="0.0059" stop-color="#4b89c8"/><stop offset="0.6241" stop-color="#232162"/></linearGradient><clipPath id="clip-path" transform="translate(-4 -6)"><rect x="31" y="4.0316" width="100" height="28.9684" fill="none"/></clipPath><linearGradient id="linear-gradient-2" x1="54.5579" y1="13.7989" x2="71.6737" y2="13.7989" gradientTransform="matrix(1, 0, 0, 1, 0, 0)" xlink:href="#linear-gradient"/><linearGradient id="linear-gradient-3" x1="69.7662" y1="6.1112" x2="75.9045" y2="10.4903" gradientUnits="userSpaceOnUse"><stop offset="0" stop-color="#4b89c8"/><stop offset="1" stop-color="#232162"/></linearGradient><linearGradient id="linear-gradient-4" x1="79.7181" y1="6.2837" x2="85.8502" y2="10.4055" gradientTransform="matrix(1, 0, 0, 1, 0, 0)" xlink:href="#linear-gradient"/><linearGradient id="linear-gradient-5" x1="88.4586" y1="6.1995" x2="91.777" y2="9.7446" xlink:href="#linear-gradient-3"/><linearGradient id="linear-gradient-6" x1="97.858" y1="5.1913" x2="107.1409" y2="12.1179" gradientTransform="matrix(1, 0, 0, 1, 0, 0)" xlink:href="#linear-gradient"/><linearGradient id="linear-gradient-7" x1="109.7753" y1="4.1572" x2="125.3943" y2="10.8393" gradientTransform="matrix(1, 0, 0, 1, 0, 0)" xlink:href="#linear-gradient"/><linearGradient id="linear-gradient-8" x1="53.8199" y1="24.8529" x2="70.9357" y2="24.8529" gradientUnits="userSpaceOnUse"><stop offset="0.0059" stop-color="#4881c0"/><stop offset="0.2848" stop-color="#232162"/></linearGradient><linearGradient id="linear-gradient-9" x1="72.2247" y1="17.4672" x2="82.6383" y2="19.5018" gradientUnits="userSpaceOnUse"><stop offset="0.0059" stop-color="#4881c0"/><stop offset="0.6859" stop-color="#232162"/></linearGradient><linearGradient id="linear-gradient-10" x1="85.2752" y1="16.3583" x2="89.6506" y2="18.4644" xlink:href="#linear-gradient-3"/><linearGradient id="linear-gradient-11" x1="95.3773" y1="14.7482" x2="103.6223" y2="20.689" gradientUnits="userSpaceOnUse"><stop offset="0" stop-color="#4b89c8"/><stop offset="0.3617" stop-color="#232162"/></linearGradient><linearGradient id="linear-gradient-12" x1="112.9638" y1="15.6589" x2="118.2815" y2="19.6212" xlink:href="#linear-gradient-3"/><linearGradient id="linear-gradient-13" x1="37.2363" y1="12.9776" x2="54.246" y2="21.5252" gradientUnits="userSpaceOnUse"><stop offset="0.0059" stop-color="#4881c0"/><stop offset="0.6341" stop-color="#232162"/></linearGradient></defs><circle cx="13.5" cy="13.5" r="13.5" fill="url(#linear-gradient)"/><path d="M10.4286,15.1351,22.9559,12c.2193.848.4364,1.6879.6559,2.5371q-4.8948,1.2249-9.7789,2.4475L13.835,17H23.9228c.0017.0369.0046.0667.0046.0968q0,3.2863,0,6.5729a2.3645,2.3645,0,0,1-2.2476,2.32c-.12.0056-.2413.009-.362.009q-3.9513.0009-7.9024,0a2.3711,2.3711,0,0,1-1.7036-.6731,2.24,2.24,0,0,1-.7071-1.5129c-.0074-.1185-.01-.2374-.01-.3561q-.0009-2.9064.0013-5.8125a2.2378,2.2378,0,0,0-.0746-.5918c-.1646-.6127-.3192-1.2278-.4775-1.8422C10.4385,15.1894,10.4353,15.1682,10.4286,15.1351Zm1.1763,4.4925v.1016q0,1.9625.0008,3.9249a1.427,1.427,0,0,0,.0171.2144,1.7805,1.7805,0,0,0,1.8077,1.53q3.9987,0,7.9976,0c.073,0,.1461-.0034.2188-.0087a1.77,1.77,0,0,0,1.67-1.7683V19.6276Zm1.8656-2.024c.02.0321.0319.0532.0457.0727.3.4256.6009.85.8985,1.2776a.1383.1383,0,0,0,.1306.0693c.3591-.0029.7182-.0014,1.0772-.0017.0271,0,.0543-.0038.0848-.0062a.1958.1958,0,0,0-.0134-.0344c-.3115-.444-.6225-.8886-.9373-1.33a.145.145,0,0,0-.1023-.0451c-.1938-.0043-.3877-.0021-.5815-.0021H13.47Zm5.1327,1.4182c-.0219-.036-.0336-.058-.0477-.0781-.3-.4262-.6019-.8514-.9-1.2789a.1315.1315,0,0,0-.1244-.0625c-.3627.0023-.7255.0011-1.0882.0013-.0236,0-.0473.0023-.0824.0041.017.0263.0263.0417.0364.0562.2759.3933.56.7813.8238,1.1823a.3611.3611,0,0,0,.3634.1794c.3331-.013.667-.0039,1.0192-.0039Zm.6411-1.4182c.0208.0331.0324.0539.046.0735.3.4259.6019.851.9,1.2784a.1385.1385,0,0,0,.1317.0675c.3562-.0025.7124-.0012,1.0686-.0015.0277,0,.0552-.0034.0911-.0057a.4257.4257,0,0,0-.0237-.0473c-.3083-.4395-.6162-.8792-.9275-1.3166a.1427.1427,0,0,0-.1005-.0464c-.2065-.0043-.4134-.0021-.62-.0021h-.5652Zm1.8521-3.0594c-.0207-.0214-.0285-.0312-.0378-.0392q-.6165-.5289-1.2346-1.0562a.1193.1193,0,0,0-.0912-.0184c-.3694.09-.738.1828-1.1069.2752-.0135.0034-.0259.01-.0607.0242a.698.698,0,0,1,.0609.04c.3521.3.7111.5936,1.0521.9057a.4151.4151,0,0,0,.457.1153C20.4456,14.6937,20.7659,14.6272,21.0964,14.5442Zm-5.5978,1.4011a.3383.3383,0,0,0-.03-.0383c-.4044-.345-.81-.6885-1.2119-1.0362a.143.143,0,0,0-.1508-.0338c-.3.0783-.6021.1508-.9031.2258-.0695.0173-.1384.0362-.226.0593.0988.0851.184.1582.2689.2312.327.2808.6533.5624.9824.8407a.1551.1551,0,0,0,.1138.0376C14.7242,16.1407,15.1046,16.044,15.4986,15.9453Zm.2875-1.5284c.0105.02.0121.0266.0165.03.4129.3548.8252.71,1.241,1.0618a.1576.1576,0,0,0,.12.0187c.3482-.0834.6951-.1714,1.0423-.2586.0287-.0071.0564-.0173.0966-.03-.411-.3519-.8124-.6908-1.2068-1.0371a.2252.2252,0,0,0-.2551-.0511,2.0582,2.0582,0,0,1-.2115.0537c-.2787.07-.5574.14-.8434.2123ZM11.61,19.0162H12.815c-.0008-.0114.0009-.0188-.0019-.0229q-.4754-.6773-.9524-1.3536a.09.09,0,0,0-.0592-.0344c-.0622-.0045-.125-.0017-.1918-.0017v1.4126Zm-.0863-2.076,1.1977-.3c-.0355-.0259-.0542-.0376-.0708-.0518q-.5711-.4866-1.1414-.9737c-.127-.1084-.1726-.1131-.336-.0278.1161.448.2323.8972.35,1.3536Zm10.6057.6668c.3116.4423.6176.8675.9116,1.3006a.2177.2177,0,0,0,.27.1034V17.6068H22.1289Zm.3837-4.8745c-.3823.0962-.7538.19-1.1255.2829l-.0088.0266a.3688.3688,0,0,1,.0487.03c.3782.3221.76.64,1.1311.97a.228.228,0,0,0,.3052.0471q-.1738-.6724-.3509-1.3568Z" transform="translate(-4 -6)" fill="#fff"/><path d="M16.3951,20.7748c.02.0094.0489.0205.0756.0355q1.204.6829,2.4078,1.3664.2186.1239.4368.2485c.11.0629.11.1468-.001.21q-1.2238.6961-2.4482,1.391c-.132.075-.2635.1505-.3962.2243-.1137.0633-.1872.0238-.1872-.1026q-.0009-1.62-.0008-3.24C16.2819,20.8371,16.3027,20.7859,16.3951,20.7748Z" transform="translate(-4 -6)" fill="#fff"/><g clip-path="url(#clip-path)"><path d="M54.5579,18.3721s.3426-9.4646,8.5783-9.1382c0,0,7.8506-.5844,8.5375,9.1382H66.5816s.1271-4.9355-3.418-4.8775c0,0-3.4031-.3688-3.4741,4.8775Z" transform="translate(-4 -6)" fill="url(#linear-gradient-2)"/><polygon points="71.226 12.372 68.423 3.616 73.585 3.616 75.963 12.372 71.226 12.372" fill="url(#linear-gradient-3)"/><polygon points="78.568 12.372 80.986 3.616 85.957 3.616 83.139 12.372 78.568 12.372" fill="url(#linear-gradient-4)"/><polygon points="87.711 12.372 87.732 3.616 92.566 3.616 92.566 12.372 87.711 12.372" fill="url(#linear-gradient-5)"/><polygon points="95.787 12.372 95.787 3.562 107.369 3.562 107.369 7.822 100.678 7.822 100.678 11.154 105.949 11.154 105.949 12.372 95.787 12.372" fill="url(#linear-gradient-6)"/><polygon points="112.366 12.372 108.134 3.616 113.378 3.616 116.737 11.209 119.96 3.616 125.122 3.616 120.868 12.372 112.366 12.372" fill="url(#linear-gradient-7)"/><path d="M71.6936,20.28s-.3426,9.4646-8.5783,9.1382c0,0-7.8506.5845-8.5375-9.1382H59.67s-.1271,4.9355,3.418,4.8775c0,0,3.4031.3688,3.4741-4.8775Z" transform="translate(-4 -6)" fill="url(#linear-gradient-8)"/><polygon points="71.905 14.292 74.677 23.145 79.676 23.145 82.516 14.28 77.968 14.28 77.244 16.836 76.516 14.28 71.905 14.292" fill="url(#linear-gradient-9)"/><polygon points="87.711 14.292 87.732 23.117 92.566 23.117 92.566 14.292 87.711 14.292" fill="url(#linear-gradient-10)"/><polygon points="95.787 14.28 95.787 23.117 100.678 23.117 100.678 15.442 105.949 15.442 105.949 14.292 95.787 14.28" fill="url(#linear-gradient-11)"/><polygon points="113.274 14.28 114.197 16.152 114.197 23.117 119.031 23.117 119.031 16.152 119.905 14.292 113.274 14.28" fill="url(#linear-gradient-12)"/></g><polygon points="28.957 23.117 29.749 3.616 34.61 3.616 38.488 13.776 42.503 3.616 47.064 3.616 47.993 23.117 43.35 23.117 42.967 11.81 39.963 19.267 36.331 19.267 33.654 11.919 33.354 23.117 28.957 23.117" fill="url(#linear-gradient-13)"/></svg>